<?xml version="1.0" standalone="no"?>
<!DOCTYPE svg PUBLIC "-//W3C//DTD SVG 20010904//EN"
 "http://www.w3.org/TR/2001/REC-SVG-20010904/DTD/svg10.dtd">
<svg version="1.0" xmlns="http://www.w3.org/2000/svg"
 width="330.000000pt" height="330.000000pt" viewBox="0 0 330.000000 330.000000"
 preserveAspectRatio="xMidYMid meet">
<metadata>
Created by potrace 1.11, written by Peter Selinger 2001-2013
</metadata>
<g transform="translate(0.000000,330.000000) scale(0.100000,-0.100000)"
fill="#000000" stroke="none">
<path d="M1410 3283 c-448 -66 -860 -322 -1120 -699 -94 -135 -205 -376 -235
-506 -40 -179 -47 -233 -50 -398 -2 -157 3 -227 28 -360 33 -173 129 -408 233
-570 l39 -60 150 5 c190 7 259 12 359 31 72 13 109 21 112 23 0 1 -40 43 -90
93 -102 105 -169 200 -226 321 -169 362 -139 786 79 1117 53 81 58 87 156 185
198 199 449 313 727 331 85 6 100 10 188 54 156 80 402 171 520 194 14 3 63
13 110 22 l85 18 -106 50 c-147 71 -322 128 -434 141 -16 2 -59 8 -95 13 -90
13 -328 10 -430 -5z"/>
<path d="M2657 2974 c-1 -1 -39 -5 -84 -8 -46 -4 -93 -9 -105 -11 -199 -38
-304 -68 -449 -125 -574 -228 -992 -640 -966 -949 3 -37 15 -87 27 -113 42
-96 153 -176 292 -212 76 -19 132 -26 268 -31 146 -5 202 -12 267 -37 87 -32
111 -83 77 -164 -73 -175 -310 -385 -601 -533 -193 -98 -421 -175 -578 -196
-94 -12 -227 -22 -327 -24 l-58 -1 4 -108 c2 -59 5 -115 5 -125 1 -16 12 -17
144 -12 78 2 151 7 162 9 11 2 49 7 84 11 100 11 318 69 448 120 299 117 536
266 728 459 128 129 181 204 228 325 31 79 30 216 -1 283 -46 97 -155 176
-294 212 -73 19 -126 25 -278 31 -187 8 -275 28 -321 75 -35 34 -36 61 -8 132
48 122 233 312 410 419 30 18 56 36 59 40 10 13 229 119 329 159 106 42 291
94 372 104 127 17 199 22 327 25 l62 1 -4 103 c-3 56 -5 112 -5 124 -1 22 -3
23 -107 20 -58 -1 -106 -3 -107 -3z"/>
<path d="M2817 2604 c-1 -1 -58 -4 -127 -8 -149 -7 -182 -12 -281 -37 l-36 -9
91 -92 c135 -138 217 -270 276 -446 132 -397 35 -843 -250 -1145 -206 -219
-473 -345 -769 -364 -78 -4 -93 -9 -202 -64 -65 -32 -122 -59 -128 -59 -6 0
-19 -4 -29 -9 -107 -54 -419 -144 -494 -143 -42 1 -23 -20 49 -56 135 -68 321
-128 478 -154 79 -13 385 -18 455 -7 30 5 72 11 93 14 198 30 478 149 667 283
122 87 297 262 380 380 129 184 235 419 267 591 2 14 6 27 8 31 2 4 7 29 10
56 4 27 10 66 15 87 9 42 6 387 -4 427 -3 13 -8 42 -11 63 -15 98 -68 268
-118 380 -13 29 -30 67 -38 85 -8 17 -17 32 -21 32 -5 0 -8 5 -8 10 0 6 -21
44 -47 85 l-47 74 -89 -2 c-49 -1 -89 -3 -90 -3z"/>
</g>
</svg>
